static pose
version=1
nRows=1
nColumns=194
inDegrees=no
endheader
time	MTTETE_tx	MTTETE_ty	MTTETE_tz	TEMPG_tx	TEMPG_ty	TEMPG_tz	OCCG_tx	OCCG_ty	OCCG_tz	OCCD_tx	OCCD_ty	OCCD_tz	TEMPD_tx	TEMPD_ty	TEMPD_tz	MAN_tx	MAN_ty	MAN_tz	C7_tx	C7_ty	C7_tz	T8_tx	T8_ty	T8_tz	XYP_tx	XYP_ty	XYP_tz	COSTALD_tx	COSTALD_ty	COSTALD_tz	COSTALG_tx	COSTALG_ty	COSTALG_tz	MTACDL_tx	MTACDL_ty	MTACDL_tz	MTACDM_tx	MTACDM_ty	MTACDM_tz	MTACDB_tx	MTACDB_ty	MTACDB_tz	ACD_tx	ACD_ty	ACD_tz	CLAVD_tx	CLAVD_ty	CLAVD_tz	MTACGL_tx	MTACGL_ty	MTACGL_tz	MTACGM_tx	MTACGM_ty	MTACGM_tz	MTACGB_tx	MTACGB_ty	MTACGB_tz	ACG_tx	ACG_ty	ACG_tz	CLAVG_tx	CLAVG_ty	CLAVG_tz	MTBHAG_tx	MTBHAG_ty	MTBHAG_tz	MTBHPG_tx	MTBHPG_ty	MTBHPG_tz	MTBBPG_tx	MTBBPG_ty	MTBBPG_tz	MTBBAG_tx	MTBBAG_ty	MTBBAG_tz	ELG_tx	ELG_ty	ELG_tz	EMG_tx	EMG_ty	EMG_tz	MTABG_tx	MTABG_ty	MTABG_tz	PSRG_tx	PSRG_ty	PSRG_tz	PSUG_tx	PSUG_ty	PSUG_tz	MC2G_tx	MC2G_ty	MC2G_tz	MC5G_tx	MC5G_ty	MC5G_tz	MTBHAD_tx	MTBHAD_ty	MTBHAD_tz	MTBHPD_tx	MTBHPD_ty	MTBHPD_tz	MTBBPD_tx	MTBBPD_ty	MTBBPD_tz	MTBBAD_tx	MTBBAD_ty	MTBBAD_tz	ELD_tx	ELD_ty	ELD_tz	EMD_tx	EMD_ty	EMD_tz	MTABD_tx	MTABD_ty	MTABD_tz	PSRD_tx	PSRD_ty	PSRD_tz	PSUD_tx	PSUD_ty	PSUD_tz	MC2D_tx	MC2D_ty	MC2D_tz	MC5D_tx	MC5D_ty	MC5D_tz	ground_thorax_rot_x	ground_thorax_rot_y	ground_thorax_rot_z	ground_thorax_tx	ground_thorax_ty	ground_thorax_tz	clav_prot_r	clav_elev_r	scapula_abduction_r	scapula_elevation_r	scapula_upward_rot_r	scapula_winging_r	shoulder_elv_r	plane_of_elev_r	axial_rot_r	elbow_flexion_r	pro_sup_r	wrist_flex_r	wrist_dev_r	clav_prot_l	clav_elev_l	scapula_abduction_l	scapula_elevation_l	scapula_upward_rot_l	scapula_winging_l	shoulder_elv_l	plane_of_elev_l	axial_rot_l	elbow_flexion_l	pro_sup_l	wrist_flex_l	wrist_dev_l	ground_thorax_rot_x_u	ground_thorax_rot_y_u	ground_thorax_rot_z_u	ground_thorax_tx_u	ground_thorax_ty_u	ground_thorax_tz_u	clav_prot_r_u	clav_elev_r_u	scapula_abduction_r_u	scapula_elevation_r_u	scapula_upward_rot_r_u	scapula_winging_r_u	shoulder_elv_r_u	plane_of_elev_r_u	axial_rot_r_u	elbow_flexion_r_u	pro_sup_r_u	wrist_flex_r_u	wrist_dev_r_u	clav_prot_l_u	clav_elev_l_u	scapula_abduction_l_u	scapula_elevation_l_u	scapula_upward_rot_l_u	scapula_winging_l_u	shoulder_elv_l_u	plane_of_elev_l_u	axial_rot_l_u	elbow_flexion_l_u	pro_sup_l_u	wrist_flex_l_u	wrist_dev_l_u
  0.00000000	  0.02825230	  1.71193047	  0.30532144	  0.09969278	  1.70110126	  0.27814206	  0.12474918	  1.69902351	  0.15659731	 -0.01870020	  1.68216380	  0.09415130	 -0.05004244	  1.69348773	  0.22907973	  0.03920981	  1.43508496	  0.24101203	  0.05475746	  1.51108899	  0.09808240	  0.04124813	  1.28704351	  0.04644907	  0.03407803	  1.27345899	  0.29152485	 -0.04056421	  1.19326564	  0.30082148	  0.09272063	  1.18595361	  0.31412616	 -0.10818087	  1.46996033	  0.08100605	 -0.06231546	  1.48716450	  0.05194813	 -0.09394073	  1.46036129	  0.04506521	 -0.14745104	  1.46320660	  0.11410463	 -0.04362814	  1.46050127	  0.20809780	  0.20408890	  1.46918272	  0.09441246	  0.16373255	  1.49660034	  0.06465292	  0.19193800	  1.46544012	  0.05707908	  0.23429139	  1.47061980	  0.13071665	  0.12469344	  1.46736385	  0.21576622	  0.33433138	  1.35354703	  0.12703707	  0.30392378	  1.32643141	  0.09408573	  0.33923436	  1.23318892	  0.07789836	  0.37578624	  1.27270638	  0.12290254	  0.42712441	  1.18905093	  0.13508498	  0.34807537	  1.14934328	  0.15022736	  0.53333108	  1.11809002	  0.21146925	  0.58803005	  1.06281137	  0.25356542	  0.56244234	  1.01679812	  0.20707550	  0.66242237	  0.99157121	  0.24966079	  0.61733747	  0.95811603	  0.23127307	 -0.22972612	  1.36533542	  0.09498441	 -0.19661310	  1.34636744	  0.05582277	 -0.25248452	  1.27365280	  0.05031545	 -0.30663163	  1.31095339	  0.11868269	 -0.33037678	  1.20857598	  0.09679892	 -0.28124625	  1.16334618	  0.12271539	 -0.47577871	  1.14639158	  0.17580724	 -0.53803199	  1.10186984	  0.19828865	 -0.51898004	  1.04636418	  0.15612379	 -0.62666136	  1.04185226	  0.19479968	 -0.57942656	  0.99453155	  0.18477957	 -0.46844428	 -1.53037560	 -0.41265044	  0.03692027	  1.43924925	  0.19166545	 -0.32971968	 -0.25470644	 -0.39470397	 -0.18869871	  0.18020492	  0.08722697	  0.96203098	 -0.49667626	  0.01601273	  0.36224309	 -0.78754505	  0.10686627	  0.12571221	 -0.12765366	 -0.03619630	  0.17521987	 -0.08327410	 -0.03681060	 -0.03667823	  0.95745088	 -0.25635173	  0.37380299	  0.37275076	 -0.63691562	 -0.02745857	  0.00964479	  0.00000000	  0.00000000	  0.00000000	  0.00000000	  0.00000000	  0.00000000	  0.00000000	  0.00000000	  0.00000000	  0.00000000	  0.00000000	  0.00000000	  0.00000000	  0.00000000	  0.00000000	  0.00000000	  0.00000000	  0.00000000	  0.00000000	  0.00000000	  0.00000000	  0.00000000	  0.00000000	  0.00000000	  0.00000000	  0.00000000	  0.00000000	  0.00000000	  0.00000000	  0.00000000	  0.00000000	  0.00000000
